<mxfile host="65bd71144e">
    <diagram id="gTFL_xUWgq8O0UYy0txc" name="ページ1">
        <mxGraphModel dx="750" dy="1932" grid="1" gridSize="10" guides="1" tooltips="1" connect="1" arrows="1" fold="1" page="1" pageScale="1" pageWidth="850" pageHeight="1100" math="0" shadow="0">
            <root>
                <mxCell id="0"/>
                <mxCell id="1" parent="0"/>
                <mxCell id="2" value="PizzaStore" style="swimlane;fontStyle=1;align=center;verticalAlign=top;childLayout=stackLayout;horizontal=1;startSize=26;horizontalStack=0;resizeParent=1;resizeParentMax=0;resizeLast=0;collapsible=1;marginBottom=0;" vertex="1" parent="1">
                    <mxGeometry x="1080" y="50" width="160" height="80" as="geometry"/>
                </mxCell>
                <mxCell id="3" value="" style="line;strokeWidth=1;fillColor=none;align=left;verticalAlign=middle;spacingTop=-1;spacingLeft=3;spacingRight=3;rotatable=0;labelPosition=right;points=[];portConstraint=eastwest;" vertex="1" parent="2">
                    <mxGeometry y="26" width="160" height="8" as="geometry"/>
                </mxCell>
                <mxCell id="4" value="+ orderPizza()&#10;+ ceatePizza()" style="text;strokeColor=none;fillColor=none;align=left;verticalAlign=top;spacingLeft=4;spacingRight=4;overflow=hidden;rotatable=0;points=[[0,0.5],[1,0.5]];portConstraint=eastwest;" vertex="1" parent="2">
                    <mxGeometry y="34" width="160" height="46" as="geometry"/>
                </mxCell>
                <mxCell id="5" value="NYPizzaStore" style="swimlane;fontStyle=1;align=center;verticalAlign=top;childLayout=stackLayout;horizontal=1;startSize=26;horizontalStack=0;resizeParent=1;resizeParentMax=0;resizeLast=0;collapsible=1;marginBottom=0;" vertex="1" parent="1">
                    <mxGeometry x="980" y="210" width="160" height="60" as="geometry"/>
                </mxCell>
                <mxCell id="6" value="" style="line;strokeWidth=1;fillColor=none;align=left;verticalAlign=middle;spacingTop=-1;spacingLeft=3;spacingRight=3;rotatable=0;labelPosition=right;points=[];portConstraint=eastwest;" vertex="1" parent="5">
                    <mxGeometry y="26" width="160" height="8" as="geometry"/>
                </mxCell>
                <mxCell id="7" value="+ ceatePizza()" style="text;strokeColor=none;fillColor=none;align=left;verticalAlign=top;spacingLeft=4;spacingRight=4;overflow=hidden;rotatable=0;points=[[0,0.5],[1,0.5]];portConstraint=eastwest;" vertex="1" parent="5">
                    <mxGeometry y="34" width="160" height="26" as="geometry"/>
                </mxCell>
                <mxCell id="8" value="ChicagoPizzaStore" style="swimlane;fontStyle=1;align=center;verticalAlign=top;childLayout=stackLayout;horizontal=1;startSize=26;horizontalStack=0;resizeParent=1;resizeParentMax=0;resizeLast=0;collapsible=1;marginBottom=0;" vertex="1" parent="1">
                    <mxGeometry x="1170" y="210" width="160" height="60" as="geometry"/>
                </mxCell>
                <mxCell id="9" value="" style="line;strokeWidth=1;fillColor=none;align=left;verticalAlign=middle;spacingTop=-1;spacingLeft=3;spacingRight=3;rotatable=0;labelPosition=right;points=[];portConstraint=eastwest;" vertex="1" parent="8">
                    <mxGeometry y="26" width="160" height="8" as="geometry"/>
                </mxCell>
                <mxCell id="10" value="+ ceatePizza()" style="text;strokeColor=none;fillColor=none;align=left;verticalAlign=top;spacingLeft=4;spacingRight=4;overflow=hidden;rotatable=0;points=[[0,0.5],[1,0.5]];portConstraint=eastwest;" vertex="1" parent="8">
                    <mxGeometry y="34" width="160" height="26" as="geometry"/>
                </mxCell>
                <mxCell id="11" value="Extends" style="endArrow=block;endSize=16;endFill=0;html=1;" edge="1" parent="1" source="5" target="2">
                    <mxGeometry width="160" relative="1" as="geometry">
                        <mxPoint x="960" y="290" as="sourcePoint"/>
                        <mxPoint x="1120" y="290" as="targetPoint"/>
                    </mxGeometry>
                </mxCell>
                <mxCell id="12" value="Extends" style="endArrow=block;endSize=16;endFill=0;html=1;" edge="1" parent="1" source="8" target="2">
                    <mxGeometry width="160" relative="1" as="geometry">
                        <mxPoint x="1090" y="220" as="sourcePoint"/>
                        <mxPoint x="1143.3333333333333" y="140" as="targetPoint"/>
                    </mxGeometry>
                </mxCell>
                <mxCell id="13" value="&lt;&lt;intarface&gt;&gt;&#10;PizzaIngredientFactory" style="swimlane;fontStyle=1;align=center;verticalAlign=top;childLayout=stackLayout;horizontal=1;startSize=36;horizontalStack=0;resizeParent=1;resizeParentMax=0;resizeLast=0;collapsible=1;marginBottom=0;" vertex="1" parent="1">
                    <mxGeometry x="410" y="74" width="160" height="126" as="geometry"/>
                </mxCell>
                <mxCell id="15" value="" style="line;strokeWidth=1;fillColor=none;align=left;verticalAlign=middle;spacingTop=-1;spacingLeft=3;spacingRight=3;rotatable=0;labelPosition=right;points=[];portConstraint=eastwest;" vertex="1" parent="13">
                    <mxGeometry y="36" width="160" height="8" as="geometry"/>
                </mxCell>
                <mxCell id="16" value="+ createDough()&#10;+ createSauce()&#10;+ createCheese()&#10;+ createVeggies()&#10;+ createClam()" style="text;strokeColor=none;fillColor=none;align=left;verticalAlign=top;spacingLeft=4;spacingRight=4;overflow=hidden;rotatable=0;points=[[0,0.5],[1,0.5]];portConstraint=eastwest;" vertex="1" parent="13">
                    <mxGeometry y="44" width="160" height="82" as="geometry"/>
                </mxCell>
                <mxCell id="22" value="Extends" style="endArrow=block;endSize=16;endFill=0;html=1;" edge="1" parent="1" source="29" target="13">
                    <mxGeometry width="160" relative="1" as="geometry">
                        <mxPoint x="378.71794871794873" y="354" as="sourcePoint"/>
                        <mxPoint x="903.3333333333333" y="244" as="targetPoint"/>
                    </mxGeometry>
                </mxCell>
                <mxCell id="23" value="Extends" style="endArrow=block;endSize=16;endFill=0;html=1;" edge="1" parent="1" source="33" target="13">
                    <mxGeometry width="160" relative="1" as="geometry">
                        <mxPoint x="578.5714285714287" y="354" as="sourcePoint"/>
                        <mxPoint x="452.17391304347825" y="264" as="targetPoint"/>
                    </mxGeometry>
                </mxCell>
                <mxCell id="28" value="&lt;span&gt;&lt;font style=&quot;font-size: 16px&quot;&gt;Abstract Factoryパターン&lt;/font&gt;&lt;/span&gt;&lt;br style=&quot;padding: 0px ; margin: 0px&quot;&gt;&lt;br style=&quot;padding: 0px ; margin: 0px&quot;&gt;&lt;span&gt;具象クラスを指定せずに一連の関連オブジェクトを&lt;/span&gt;&lt;br style=&quot;padding: 0px ; margin: 0px&quot;&gt;&lt;span&gt;作成するためのインターフェースを提供する&lt;/span&gt;" style="text;html=1;strokeColor=none;fillColor=none;align=center;verticalAlign=middle;whiteSpace=wrap;rounded=0;fontSize=13;" vertex="1" parent="1">
                    <mxGeometry x="40" y="-110" width="705" height="120" as="geometry"/>
                </mxCell>
                <mxCell id="29" value="NYPizzaIngredientFactory" style="swimlane;fontStyle=1;align=center;verticalAlign=top;childLayout=stackLayout;horizontal=1;startSize=36;horizontalStack=0;resizeParent=1;resizeParentMax=0;resizeLast=0;collapsible=1;marginBottom=0;" vertex="1" parent="1">
                    <mxGeometry x="280" y="284" width="190" height="126" as="geometry"/>
                </mxCell>
                <mxCell id="30" value="" style="line;strokeWidth=1;fillColor=none;align=left;verticalAlign=middle;spacingTop=-1;spacingLeft=3;spacingRight=3;rotatable=0;labelPosition=right;points=[];portConstraint=eastwest;" vertex="1" parent="29">
                    <mxGeometry y="36" width="190" height="8" as="geometry"/>
                </mxCell>
                <mxCell id="31" value="+ createDough()&#10;+ createSauce()&#10;+ createCheese()&#10;+ createVeggies()&#10;+ createClam()" style="text;strokeColor=none;fillColor=none;align=left;verticalAlign=top;spacingLeft=4;spacingRight=4;overflow=hidden;rotatable=0;points=[[0,0.5],[1,0.5]];portConstraint=eastwest;" vertex="1" parent="29">
                    <mxGeometry y="44" width="190" height="82" as="geometry"/>
                </mxCell>
                <mxCell id="33" value="ChicagoPizzaIngredientFactory" style="swimlane;fontStyle=1;align=center;verticalAlign=top;childLayout=stackLayout;horizontal=1;startSize=36;horizontalStack=0;resizeParent=1;resizeParentMax=0;resizeLast=0;collapsible=1;marginBottom=0;" vertex="1" parent="1">
                    <mxGeometry x="490" y="284" width="215" height="126" as="geometry"/>
                </mxCell>
                <mxCell id="34" value="" style="line;strokeWidth=1;fillColor=none;align=left;verticalAlign=middle;spacingTop=-1;spacingLeft=3;spacingRight=3;rotatable=0;labelPosition=right;points=[];portConstraint=eastwest;" vertex="1" parent="33">
                    <mxGeometry y="36" width="215" height="8" as="geometry"/>
                </mxCell>
                <mxCell id="35" value="+ createDough()&#10;+ createSauce()&#10;+ createCheese()&#10;+ createVeggies()&#10;+ createClam()" style="text;strokeColor=none;fillColor=none;align=left;verticalAlign=top;spacingLeft=4;spacingRight=4;overflow=hidden;rotatable=0;points=[[0,0.5],[1,0.5]];portConstraint=eastwest;" vertex="1" parent="33">
                    <mxGeometry y="44" width="215" height="82" as="geometry"/>
                </mxCell>
                <mxCell id="36" value="&lt;&lt;interface&gt;&gt;&#10;Dough" style="swimlane;fontStyle=1;align=center;verticalAlign=top;childLayout=stackLayout;horizontal=1;startSize=42;horizontalStack=0;resizeParent=1;resizeParentMax=0;resizeLast=0;collapsible=1;marginBottom=0;" vertex="1" parent="1">
                    <mxGeometry x="1030" y="430" width="160" height="50" as="geometry"/>
                </mxCell>
                <mxCell id="37" value="" style="line;strokeWidth=1;fillColor=none;align=left;verticalAlign=middle;spacingTop=-1;spacingLeft=3;spacingRight=3;rotatable=0;labelPosition=right;points=[];portConstraint=eastwest;" vertex="1" parent="36">
                    <mxGeometry y="42" width="160" height="8" as="geometry"/>
                </mxCell>
                <mxCell id="39" value="ThickCrustDough" style="swimlane;fontStyle=1;align=center;verticalAlign=top;childLayout=stackLayout;horizontal=1;startSize=30;horizontalStack=0;resizeParent=1;resizeParentMax=0;resizeLast=0;collapsible=1;marginBottom=0;" vertex="1" parent="1">
                    <mxGeometry x="950" y="520" width="160" height="38" as="geometry"/>
                </mxCell>
                <mxCell id="40" value="" style="line;strokeWidth=1;fillColor=none;align=left;verticalAlign=middle;spacingTop=-1;spacingLeft=3;spacingRight=3;rotatable=0;labelPosition=right;points=[];portConstraint=eastwest;" vertex="1" parent="39">
                    <mxGeometry y="30" width="160" height="8" as="geometry"/>
                </mxCell>
                <mxCell id="41" value="ThickCrustDough" style="swimlane;fontStyle=1;align=center;verticalAlign=top;childLayout=stackLayout;horizontal=1;startSize=30;horizontalStack=0;resizeParent=1;resizeParentMax=0;resizeLast=0;collapsible=1;marginBottom=0;" vertex="1" parent="1">
                    <mxGeometry x="1130" y="520" width="160" height="38" as="geometry"/>
                </mxCell>
                <mxCell id="42" value="" style="line;strokeWidth=1;fillColor=none;align=left;verticalAlign=middle;spacingTop=-1;spacingLeft=3;spacingRight=3;rotatable=0;labelPosition=right;points=[];portConstraint=eastwest;" vertex="1" parent="41">
                    <mxGeometry y="30" width="160" height="8" as="geometry"/>
                </mxCell>
                <mxCell id="44" value="" style="endArrow=block;dashed=1;endFill=0;endSize=12;html=1;fontSize=16;" edge="1" parent="1" source="39" target="36">
                    <mxGeometry width="160" relative="1" as="geometry">
                        <mxPoint x="1100" y="500" as="sourcePoint"/>
                        <mxPoint x="1260" y="500" as="targetPoint"/>
                    </mxGeometry>
                </mxCell>
                <mxCell id="45" value="" style="endArrow=block;dashed=1;endFill=0;endSize=12;html=1;fontSize=16;" edge="1" parent="1" source="41" target="36">
                    <mxGeometry width="160" relative="1" as="geometry">
                        <mxPoint x="1028.3333333333333" y="560" as="sourcePoint"/>
                        <mxPoint x="1095.877192982456" y="490" as="targetPoint"/>
                    </mxGeometry>
                </mxCell>
                <mxCell id="46" value="&lt;&lt;interface&gt;&gt;&#10;Sauce" style="swimlane;fontStyle=1;align=center;verticalAlign=top;childLayout=stackLayout;horizontal=1;startSize=42;horizontalStack=0;resizeParent=1;resizeParentMax=0;resizeLast=0;collapsible=1;marginBottom=0;" vertex="1" parent="1">
                    <mxGeometry x="1040" y="630" width="160" height="50" as="geometry"/>
                </mxCell>
                <mxCell id="47" value="" style="line;strokeWidth=1;fillColor=none;align=left;verticalAlign=middle;spacingTop=-1;spacingLeft=3;spacingRight=3;rotatable=0;labelPosition=right;points=[];portConstraint=eastwest;" vertex="1" parent="46">
                    <mxGeometry y="42" width="160" height="8" as="geometry"/>
                </mxCell>
                <mxCell id="48" value="PlumTomatoSauce" style="swimlane;fontStyle=1;align=center;verticalAlign=top;childLayout=stackLayout;horizontal=1;startSize=30;horizontalStack=0;resizeParent=1;resizeParentMax=0;resizeLast=0;collapsible=1;marginBottom=0;" vertex="1" parent="1">
                    <mxGeometry x="960" y="720" width="160" height="38" as="geometry"/>
                </mxCell>
                <mxCell id="49" value="" style="line;strokeWidth=1;fillColor=none;align=left;verticalAlign=middle;spacingTop=-1;spacingLeft=3;spacingRight=3;rotatable=0;labelPosition=right;points=[];portConstraint=eastwest;" vertex="1" parent="48">
                    <mxGeometry y="30" width="160" height="8" as="geometry"/>
                </mxCell>
                <mxCell id="50" value="MarinaraSauce" style="swimlane;fontStyle=1;align=center;verticalAlign=top;childLayout=stackLayout;horizontal=1;startSize=30;horizontalStack=0;resizeParent=1;resizeParentMax=0;resizeLast=0;collapsible=1;marginBottom=0;" vertex="1" parent="1">
                    <mxGeometry x="1140" y="720" width="160" height="38" as="geometry"/>
                </mxCell>
                <mxCell id="51" value="" style="line;strokeWidth=1;fillColor=none;align=left;verticalAlign=middle;spacingTop=-1;spacingLeft=3;spacingRight=3;rotatable=0;labelPosition=right;points=[];portConstraint=eastwest;" vertex="1" parent="50">
                    <mxGeometry y="30" width="160" height="8" as="geometry"/>
                </mxCell>
                <mxCell id="52" value="" style="endArrow=block;dashed=1;endFill=0;endSize=12;html=1;fontSize=16;" edge="1" parent="1" source="48" target="46">
                    <mxGeometry width="160" relative="1" as="geometry">
                        <mxPoint x="1110" y="700" as="sourcePoint"/>
                        <mxPoint x="1270" y="700" as="targetPoint"/>
                    </mxGeometry>
                </mxCell>
                <mxCell id="53" value="" style="endArrow=block;dashed=1;endFill=0;endSize=12;html=1;fontSize=16;" edge="1" parent="1" source="50" target="46">
                    <mxGeometry width="160" relative="1" as="geometry">
                        <mxPoint x="1038.3333333333333" y="760" as="sourcePoint"/>
                        <mxPoint x="1105.877192982456" y="690" as="targetPoint"/>
                    </mxGeometry>
                </mxCell>
                <mxCell id="54" value="&lt;&lt;interface&gt;&gt;&#10;Cheese" style="swimlane;fontStyle=1;align=center;verticalAlign=top;childLayout=stackLayout;horizontal=1;startSize=42;horizontalStack=0;resizeParent=1;resizeParentMax=0;resizeLast=0;collapsible=1;marginBottom=0;" vertex="1" parent="1">
                    <mxGeometry x="1040" y="810" width="160" height="50" as="geometry"/>
                </mxCell>
                <mxCell id="55" value="" style="line;strokeWidth=1;fillColor=none;align=left;verticalAlign=middle;spacingTop=-1;spacingLeft=3;spacingRight=3;rotatable=0;labelPosition=right;points=[];portConstraint=eastwest;" vertex="1" parent="54">
                    <mxGeometry y="42" width="160" height="8" as="geometry"/>
                </mxCell>
                <mxCell id="56" value="MozzarellaCheese" style="swimlane;fontStyle=1;align=center;verticalAlign=top;childLayout=stackLayout;horizontal=1;startSize=30;horizontalStack=0;resizeParent=1;resizeParentMax=0;resizeLast=0;collapsible=1;marginBottom=0;" vertex="1" parent="1">
                    <mxGeometry x="960" y="900" width="160" height="38" as="geometry"/>
                </mxCell>
                <mxCell id="57" value="" style="line;strokeWidth=1;fillColor=none;align=left;verticalAlign=middle;spacingTop=-1;spacingLeft=3;spacingRight=3;rotatable=0;labelPosition=right;points=[];portConstraint=eastwest;" vertex="1" parent="56">
                    <mxGeometry y="30" width="160" height="8" as="geometry"/>
                </mxCell>
                <mxCell id="58" value="ReggianoCheese" style="swimlane;fontStyle=1;align=center;verticalAlign=top;childLayout=stackLayout;horizontal=1;startSize=30;horizontalStack=0;resizeParent=1;resizeParentMax=0;resizeLast=0;collapsible=1;marginBottom=0;" vertex="1" parent="1">
                    <mxGeometry x="1140" y="900" width="160" height="38" as="geometry"/>
                </mxCell>
                <mxCell id="59" value="" style="line;strokeWidth=1;fillColor=none;align=left;verticalAlign=middle;spacingTop=-1;spacingLeft=3;spacingRight=3;rotatable=0;labelPosition=right;points=[];portConstraint=eastwest;" vertex="1" parent="58">
                    <mxGeometry y="30" width="160" height="8" as="geometry"/>
                </mxCell>
                <mxCell id="60" value="" style="endArrow=block;dashed=1;endFill=0;endSize=12;html=1;fontSize=16;" edge="1" parent="1" source="56" target="54">
                    <mxGeometry width="160" relative="1" as="geometry">
                        <mxPoint x="1110" y="880" as="sourcePoint"/>
                        <mxPoint x="1270" y="880" as="targetPoint"/>
                    </mxGeometry>
                </mxCell>
                <mxCell id="61" value="" style="endArrow=block;dashed=1;endFill=0;endSize=12;html=1;fontSize=16;" edge="1" parent="1" source="58" target="54">
                    <mxGeometry width="160" relative="1" as="geometry">
                        <mxPoint x="1038.3333333333333" y="940" as="sourcePoint"/>
                        <mxPoint x="1105.877192982456" y="870" as="targetPoint"/>
                    </mxGeometry>
                </mxCell>
                <mxCell id="62" value="&lt;&lt;interface&gt;&gt;&#10;Clams" style="swimlane;fontStyle=1;align=center;verticalAlign=top;childLayout=stackLayout;horizontal=1;startSize=42;horizontalStack=0;resizeParent=1;resizeParentMax=0;resizeLast=0;collapsible=1;marginBottom=0;" vertex="1" parent="1">
                    <mxGeometry x="1050" y="980" width="160" height="50" as="geometry"/>
                </mxCell>
                <mxCell id="63" value="" style="line;strokeWidth=1;fillColor=none;align=left;verticalAlign=middle;spacingTop=-1;spacingLeft=3;spacingRight=3;rotatable=0;labelPosition=right;points=[];portConstraint=eastwest;" vertex="1" parent="62">
                    <mxGeometry y="42" width="160" height="8" as="geometry"/>
                </mxCell>
                <mxCell id="64" value="FrozenClams" style="swimlane;fontStyle=1;align=center;verticalAlign=top;childLayout=stackLayout;horizontal=1;startSize=30;horizontalStack=0;resizeParent=1;resizeParentMax=0;resizeLast=0;collapsible=1;marginBottom=0;" vertex="1" parent="1">
                    <mxGeometry x="970" y="1070" width="160" height="38" as="geometry"/>
                </mxCell>
                <mxCell id="65" value="" style="line;strokeWidth=1;fillColor=none;align=left;verticalAlign=middle;spacingTop=-1;spacingLeft=3;spacingRight=3;rotatable=0;labelPosition=right;points=[];portConstraint=eastwest;" vertex="1" parent="64">
                    <mxGeometry y="30" width="160" height="8" as="geometry"/>
                </mxCell>
                <mxCell id="66" value="FreshClams" style="swimlane;fontStyle=1;align=center;verticalAlign=top;childLayout=stackLayout;horizontal=1;startSize=30;horizontalStack=0;resizeParent=1;resizeParentMax=0;resizeLast=0;collapsible=1;marginBottom=0;" vertex="1" parent="1">
                    <mxGeometry x="1150" y="1070" width="160" height="38" as="geometry"/>
                </mxCell>
                <mxCell id="67" value="" style="line;strokeWidth=1;fillColor=none;align=left;verticalAlign=middle;spacingTop=-1;spacingLeft=3;spacingRight=3;rotatable=0;labelPosition=right;points=[];portConstraint=eastwest;" vertex="1" parent="66">
                    <mxGeometry y="30" width="160" height="8" as="geometry"/>
                </mxCell>
                <mxCell id="68" value="" style="endArrow=block;dashed=1;endFill=0;endSize=12;html=1;fontSize=16;" edge="1" parent="1" source="64" target="62">
                    <mxGeometry width="160" relative="1" as="geometry">
                        <mxPoint x="1120" y="1050" as="sourcePoint"/>
                        <mxPoint x="1280" y="1050" as="targetPoint"/>
                    </mxGeometry>
                </mxCell>
                <mxCell id="69" value="" style="endArrow=block;dashed=1;endFill=0;endSize=12;html=1;fontSize=16;" edge="1" parent="1" source="66" target="62">
                    <mxGeometry width="160" relative="1" as="geometry">
                        <mxPoint x="1048.3333333333333" y="1110" as="sourcePoint"/>
                        <mxPoint x="1115.877192982456" y="1040" as="targetPoint"/>
                    </mxGeometry>
                </mxCell>
                <mxCell id="70" value="" style="endArrow=open;endFill=1;endSize=12;html=1;fontSize=16;" edge="1" parent="1" source="5" target="36">
                    <mxGeometry width="160" relative="1" as="geometry">
                        <mxPoint x="1100" y="330" as="sourcePoint"/>
                        <mxPoint x="1260" y="330" as="targetPoint"/>
                        <Array as="points">
                            <mxPoint x="1490" y="400"/>
                            <mxPoint x="1490" y="455"/>
                        </Array>
                    </mxGeometry>
                </mxCell>
                <mxCell id="71" value="" style="endArrow=open;endFill=1;endSize=12;html=1;fontSize=16;entryX=1;entryY=0.5;entryDx=0;entryDy=0;" edge="1" parent="1" source="5" target="46">
                    <mxGeometry width="160" relative="1" as="geometry">
                        <mxPoint x="1490" y="450" as="sourcePoint"/>
                        <mxPoint x="1200" y="465" as="targetPoint"/>
                        <Array as="points">
                            <mxPoint x="1490" y="400"/>
                            <mxPoint x="1490" y="655"/>
                        </Array>
                    </mxGeometry>
                </mxCell>
                <mxCell id="72" value="" style="endArrow=open;endFill=1;endSize=12;html=1;fontSize=16;entryX=1;entryY=0.5;entryDx=0;entryDy=0;" edge="1" parent="1" source="5" target="54">
                    <mxGeometry width="160" relative="1" as="geometry">
                        <mxPoint x="1150" y="279.76744186046517" as="sourcePoint"/>
                        <mxPoint x="1210" y="665" as="targetPoint"/>
                        <Array as="points">
                            <mxPoint x="1490" y="400"/>
                            <mxPoint x="1490" y="830"/>
                        </Array>
                    </mxGeometry>
                </mxCell>
                <mxCell id="73" value="" style="endArrow=open;endFill=1;endSize=12;html=1;fontSize=16;" edge="1" parent="1" source="5" target="62">
                    <mxGeometry width="160" relative="1" as="geometry">
                        <mxPoint x="1150" y="279.76744186046517" as="sourcePoint"/>
                        <mxPoint x="1210" y="845" as="targetPoint"/>
                        <Array as="points">
                            <mxPoint x="1490" y="400"/>
                            <mxPoint x="1490" y="1005"/>
                        </Array>
                    </mxGeometry>
                </mxCell>
                <mxCell id="75" value="" style="endArrow=open;endFill=1;endSize=12;html=1;fontSize=16;" edge="1" parent="1" source="8" target="36">
                    <mxGeometry width="160" relative="1" as="geometry">
                        <mxPoint x="1150" y="279.76744186046517" as="sourcePoint"/>
                        <mxPoint x="1200" y="465" as="targetPoint"/>
                        <Array as="points">
                            <mxPoint x="1490" y="400"/>
                            <mxPoint x="1490" y="455"/>
                        </Array>
                    </mxGeometry>
                </mxCell>
                <mxCell id="76" value="" style="endArrow=open;endFill=1;endSize=12;html=1;fontSize=16;" edge="1" parent="1" source="35" target="39">
                    <mxGeometry width="160" relative="1" as="geometry">
                        <mxPoint x="720" y="280" as="sourcePoint"/>
                        <mxPoint x="880" y="280" as="targetPoint"/>
                        <Array as="points">
                            <mxPoint x="598" y="539"/>
                        </Array>
                    </mxGeometry>
                </mxCell>
                <mxCell id="77" value="" style="endArrow=open;endFill=1;endSize=12;html=1;fontSize=16;" edge="1" parent="1" source="33" target="48">
                    <mxGeometry width="160" relative="1" as="geometry">
                        <mxPoint x="607.620588235294" y="420" as="sourcePoint"/>
                        <mxPoint x="960" y="549" as="targetPoint"/>
                        <Array as="points">
                            <mxPoint x="600" y="739"/>
                        </Array>
                    </mxGeometry>
                </mxCell>
                <mxCell id="78" value="" style="endArrow=open;endFill=1;endSize=12;html=1;fontSize=16;" edge="1" parent="1" source="33" target="56">
                    <mxGeometry width="160" relative="1" as="geometry">
                        <mxPoint x="607.9017857142858" y="420" as="sourcePoint"/>
                        <mxPoint x="970" y="749" as="targetPoint"/>
                        <Array as="points">
                            <mxPoint x="598" y="919"/>
                        </Array>
                    </mxGeometry>
                </mxCell>
                <mxCell id="79" value="" style="endArrow=open;endFill=1;endSize=12;html=1;fontSize=16;" edge="1" parent="1" source="33" target="64">
                    <mxGeometry width="160" relative="1" as="geometry">
                        <mxPoint x="607.55506993007" y="420" as="sourcePoint"/>
                        <mxPoint x="970" y="929" as="targetPoint"/>
                        <Array as="points">
                            <mxPoint x="598" y="1090"/>
                        </Array>
                    </mxGeometry>
                </mxCell>
                <mxCell id="80" value="" style="endArrow=open;endFill=1;endSize=12;html=1;fontSize=16;" edge="1" parent="1" source="29" target="41">
                    <mxGeometry width="160" relative="1" as="geometry">
                        <mxPoint x="607.5423956931359" y="420" as="sourcePoint"/>
                        <mxPoint x="1390" y="530" as="targetPoint"/>
                        <Array as="points">
                            <mxPoint x="380" y="1330"/>
                            <mxPoint x="1380" y="1330"/>
                            <mxPoint x="1380" y="539"/>
                        </Array>
                    </mxGeometry>
                </mxCell>
                <mxCell id="81" value="" style="endArrow=open;endFill=1;endSize=12;html=1;fontSize=16;" edge="1" parent="1" source="29" target="50">
                    <mxGeometry width="160" relative="1" as="geometry">
                        <mxPoint x="385.320447609359" y="420" as="sourcePoint"/>
                        <mxPoint x="1300" y="549" as="targetPoint"/>
                        <Array as="points">
                            <mxPoint x="380" y="1330"/>
                            <mxPoint x="1380" y="1330"/>
                            <mxPoint x="1380" y="739"/>
                        </Array>
                    </mxGeometry>
                </mxCell>
                <mxCell id="82" value="" style="endArrow=open;endFill=1;endSize=12;html=1;fontSize=16;" edge="1" parent="1" source="29" target="58">
                    <mxGeometry width="160" relative="1" as="geometry">
                        <mxPoint x="385.320447609359" y="420" as="sourcePoint"/>
                        <mxPoint x="1310" y="749" as="targetPoint"/>
                        <Array as="points">
                            <mxPoint x="380" y="1330"/>
                            <mxPoint x="1380" y="1330"/>
                            <mxPoint x="1380" y="919"/>
                        </Array>
                    </mxGeometry>
                </mxCell>
                <mxCell id="83" value="" style="endArrow=open;endFill=1;endSize=12;html=1;fontSize=16;" edge="1" parent="1" source="29" target="66">
                    <mxGeometry width="160" relative="1" as="geometry">
                        <mxPoint x="385.320447609359" y="420" as="sourcePoint"/>
                        <mxPoint x="1310" y="929" as="targetPoint"/>
                        <Array as="points">
                            <mxPoint x="380" y="1330"/>
                            <mxPoint x="1380" y="1330"/>
                            <mxPoint x="1380" y="1089"/>
                        </Array>
                    </mxGeometry>
                </mxCell>
            </root>
        </mxGraphModel>
    </diagram>
</mxfile>